# xmcd
#
# Track frame offsets: 
#        150
#        27503
#        47331
#        69987
#        99067
#        129032
#        154775
#        173386
#        192249
#        216124
#        233279
#        259932
#        278677
#        294085
#        311606
#        336412
#
# Disc length: 4698 seconds
#
# Revision: 0
# Processed by: cddbd v1.5.2PL0 Copyright (c) Steve Scherf et al.
# Submitted via: ExactAudioCopyFreeDBPlugin 1.0
#
DISCID=c8125810
DTITLE=忌野清志郎 - Sings Soul Ballads
DYEAR=2011
DGENRE=Rock
TTITLE0=世界中の人に自慢したいよ
TTITLE1=JOKE
TTITLE2=ギビツミ
TTITLE3=NEWSを知りたい
TTITLE4=君を信じてる
TTITLE5=雪どけ
TTITLE6=花びら
TTITLE7=仕草
TTITLE8=まわりはワナ
TTITLE9=あいつの口笛
TTITLE10=スローバラード (Live)
TTITLE11=彼女の笑顔
TTITLE12=500マイル
TTITLE13=約束
TTITLE14=ぼくの家の前の道を今朝も小学生が通います
TTITLE15=500 mile
EXTD=
EXTT0=
EXTT1=
EXTT2=
EXTT3=
EXTT4=
EXTT5=
EXTT6=
EXTT7=
EXTT8=
EXTT9=
EXTT10=
EXTT11=
EXTT12=
EXTT13=
EXTT14=
EXTT15=
PLAYORDER=
